# xmcd
#
# Track frame offsets:
#	150
#	13442
#	30290
#	46132
#	60125
#	75387
#	95612
#	106202
#	126027
#	146647
#	161487
#	171772
#	185945
#
# Disc length: 2746 seconds
#
# Revision: 1
# Processed by: cddbd v1.4PL0 Copyright (c) Steve Scherf et al.
# Submitted via: audiograbber 1.80
#
DISCID=a00ab80d
DTITLE=Freddy Brooks Band - One Little Word
DYEAR=1900
DGENRE=
TTITLE0=Fun To Visit
TTITLE1=I Just Killed A Man
TTITLE2=Death Row Blues
TTITLE3=So Damn Poor
TTITLE4=Back Where I Came From
TTITLE5=You're The One I Love
TTITLE6=Boogie Bill
TTITLE7=Jigsaw Puzzle
TTITLE8=You're Doin' Me Wrong
TTITLE9=Pale Hearted Woman
TTITLE10=One Little Word
TTITLE11=1000 Miles
TTITLE12=First Day Of April
EXTD=
EXTT0=
EXTT1=
EXTT2=
EXTT3=
EXTT4=
EXTT5=
EXTT6=
EXTT7=
EXTT8=
EXTT9=
EXTT10=
EXTT11=
EXTT12=
PLAYORDER=
